<svg id="Layer_1" enable-background="new 0 0 512.032 512.032" height="512" viewBox="0 0 512.032 512.032" width="512" xmlns="http://www.w3.org/2000/svg"><g><path d="m102.743 41.812c94.267-42.373 232.276-42.374 326.543 0 11.081 4.981 19.836 13.957 24.626 25.122 42.805 99.774 42.804 246.427-.002 346.2-4.789 11.162-13.542 20.137-24.621 25.117-94.268 42.375-232.281 42.375-326.549 0-11.079-4.98-19.832-13.954-24.621-25.117-42.805-99.774-42.805-246.428.001-346.202 4.789-11.164 13.543-20.139 24.623-25.12z" fill="#99ebfa"/><g fill="#fff"><path d="m266.016 376.032-30 40-30-40"/><path d="m336.016 376.032-30 60-30-60"/><path d="m346.016 376.032h-160c-22.091 0-40-17.909-40-40 0-22.091 17.909-40 40-40h160c22.091 0 40 17.909 40 40 0 22.091-17.909 40-40 40z"/></g><circle cx="166.016" cy="226.032" fill="#ccf5fc" r="30"/><circle cx="366.016" cy="226.032" fill="#ccf5fc" r="30"/><path d="m331.016 452.032c-3.71 28.139-31.396 50-65 50-33.604 0-61.29-21.861-65-50" fill="#99ebfa"/><path d="m116.016 85.032c0 24.853-20.147 45-45 45s-45-20.147-45-45 45-75 45-75 45 50.147 45 75z" fill="#ccf5fc"/><g><path d="m108.016 386.032-30 116-30-116c16.568-13.334 43.431-13.334 60 0z" fill="#fff"/></g><g><path d="m486.016 346.032-30 116-30-116c16.568-13.334 43.431-13.334 60 0z" fill="#fff"/></g><g fill="#80b6ff"><path d="m346.016 286.032h-160c-27.57 0-50 22.43-50 50s22.43 50 50 50h15l27 36c1.889 2.519 4.853 4 8 4s6.111-1.481 8-4l26.292-35.056 26.764 53.527c1.694 3.389 5.157 5.528 8.944 5.528s7.25-2.14 8.944-5.528l27.236-54.472h3.82c27.57 0 50-22.43 50-50s-22.43-49.999-50-49.999zm28.279 40h-38.28v-20h10c13.037 0 24.153 8.361 28.28 20zm-98.279 40v-20h40v20zm-20-20v20h-40v-20zm-40-20v-20h40v20zm60 0v-20h40v20zm-90-20h10v20h-38.28c4.128-11.639 15.243-20 28.28-20zm-28.28 40h38.28v20h-10c-13.037 0-24.152-8.361-28.28-20zm78.28 53.333-10-13.333h20zm70 14.306-13.82-27.64h27.64zm40-47.639h-10v-20h38.28c-4.128 11.639-15.244 20-28.28 20z"/><path d="m166.016 266.032c22.056 0 40-17.944 40-40s-17.944-40-40-40-40 17.944-40 40 17.944 40 40 40zm0-60c11.028 0 20 8.972 20 20s-8.972 20-20 20-20-8.972-20-20 8.972-20 20-20z"/><path d="m366.016 186.032c-22.056 0-40 17.944-40 40s17.944 40 40 40 40-17.944 40-40-17.944-40-40-40zm0 60c-11.028 0-20-8.972-20-20s8.972-20 20-20 20 8.972 20 20-8.972 20-20 20z"/><path d="m204.965 130.493c2.464-4.942.454-10.947-4.489-13.411s-10.947-.455-13.411 4.489c-9.6 19.259-40.961 29.346-68.482 22.036-5.339-1.425-10.814 1.759-12.233 7.096-1.418 5.338 1.759 10.814 7.096 12.232 8.022 2.133 16.176 3.146 24.176 3.146 29.208.001 56.345-13.525 67.343-35.588z"/><path d="m396.408 166.082c7.999 0 16.156-1.015 24.176-3.146 5.337-1.418 8.515-6.895 7.096-12.232s-6.895-8.521-12.233-7.096c-27.522 7.312-58.882-2.778-68.482-22.036-2.463-4.942-8.468-6.952-13.411-4.489-4.943 2.464-6.953 8.469-4.489 13.411 11 22.064 38.134 35.588 67.343 35.588z"/><path d="m492.285 338.241c-1.551-1.248-3.176-2.389-4.851-3.447 17.292-92.482 8.049-196.326-24.332-271.802-5.807-13.536-16.36-24.297-29.716-30.302-96.172-43.228-235.407-43.582-332.299-1.073-11.243-15.539-22.162-27.744-22.628-28.264-1.897-2.113-4.603-3.321-7.443-3.321s-5.546 1.208-7.443 3.321c-.474.528-11.742 13.121-23.176 29.021-16.406 22.813-24.381 40.038-24.381 52.658 0 21.627 12.552 40.37 30.749 49.349-16.249 76.635-13.919 164.208 6.242 236.946-4.009 1.836-7.804 4.133-11.26 6.914-3.061 2.464-4.396 6.491-3.412 10.295l30 116c1.142 4.413 5.123 7.496 9.682 7.496s8.54-3.083 9.682-7.496l14.394-55.656c28.592 12.426 60.995 21.293 96.418 26.38 12.435 21.962 38.177 36.771 67.507 36.771s55.072-14.81 67.507-36.771c36.85-5.292 70.445-14.664 99.868-27.889 2.603-1.17 5.086-2.529 7.459-4.043l5.485 21.208c1.142 4.413 5.123 7.496 9.682 7.496s8.54-3.083 9.682-7.496l30-116c.98-3.804-.355-7.831-3.416-10.295zm-456.269-253.209c0-3.69 2-15.059 20.519-40.842 5.191-7.228 10.429-13.824 14.482-18.741 4.022 4.878 9.212 11.415 14.38 18.602 18.609 25.877 20.619 37.28 20.619 40.981 0 19.299-15.701 35-35 35s-35-15.701-35-35zm42 377.061-18.534-71.663c11.106-5.828 25.961-5.828 37.067 0zm347.174-32.964c-25.011 11.243-53.339 19.548-84.347 24.756.026-.183.063-.363.087-.547.722-5.475-3.131-10.499-8.607-11.221-5.473-.723-10.499 3.131-11.221 8.607-3.105 23.549-26.787 41.307-55.086 41.307s-51.981-17.758-55.086-41.307c-.722-5.476-5.75-9.335-11.221-8.607-5.476.722-9.329 5.746-8.607 11.221.024.184.061.364.087.547-30.877-5.186-59.094-13.445-84.026-24.616l10.535-40.734c.983-3.804-.351-7.831-3.412-10.295-11.644-9.37-27.065-13.364-41.94-12.005-19.298-69.406-21.629-153.03-6.288-226.438 1.634.147 3.286.234 4.958.234 30.327 0 55-24.673 55-55 0-9.451-4.475-21.486-13.612-36.515 43.449-18.392 97.706-28.485 153.61-28.485 58.313 0 114.841 10.974 159.172 30.9 8.772 3.943 15.71 11.026 19.536 19.944 30.453 70.982 39.405 168.573 23.768 256.361-16.848-3.471-35.31.193-48.744 11.003-3.061 2.464-4.396 6.491-3.412 10.295l19.093 73.828c-3.02 2.796-6.449 5.065-10.237 6.767zm30.826-7.036-18.534-71.663c11.106-5.828 25.961-5.828 37.067 0z"/></g></g></svg>