<svg id="Layer_1" enable-background="new 0 0 512.036 512.036" height="512" viewBox="0 0 512.036 512.036" width="512" xmlns="http://www.w3.org/2000/svg"><g><path d="m92.746 41.817c94.267-42.374 232.276-42.374 326.543-.001 11.081 4.981 19.836 13.957 24.626 25.122 42.805 99.774 42.804 246.427-.002 346.2-4.789 11.162-13.542 20.137-24.621 25.117-94.268 42.375-232.281 42.375-326.549 0-11.079-4.98-19.832-13.954-24.621-25.117-42.805-99.774-42.806-246.428 0-346.202 4.79-11.164 13.544-20.139 24.624-25.119z" fill="#fff2a0"/><path d="m321.018 452.036c-3.71 28.139-31.396 50-65 50-33.604 0-61.29-21.861-65-50" fill="#fff2a0"/><g fill="#fffbdf"><circle cx="156.018" cy="236.036" r="40"/><circle cx="356.018" cy="226.036" r="30"/></g><g><path d="m336.018 316.036c0 44.183-35.817 80-80 80s-80-35.817-80-80c44.183-13.333 115.817-13.333 160 0z" fill="#ffbdbc"/><g><path d="m296.018 416.036v-50c0-11.046-8.954-20-20-20h-40c-11.046 0-20 8.954-20 20v50c0 22.091 17.909 40 40 40 22.091 0 40-17.909 40-40z" fill="#ffbdbc"/><g fill="#ffa96b"><path d="m453.104 62.996c-5.807-13.536-16.36-24.298-29.716-30.302-96.979-43.591-237.761-43.594-334.742.001-13.354 6.003-23.907 16.764-29.713 30.299-44.013 102.586-44.013 251.5-.001 354.086 5.806 13.533 16.357 24.292 29.712 30.296 29.422 13.226 63.017 22.597 99.867 27.888 12.435 21.962 38.176 36.772 67.507 36.772s55.072-14.81 67.507-36.772c36.85-5.291 70.445-14.663 99.868-27.888 13.354-6.004 23.905-16.763 29.71-30.296 44.013-102.584 44.013-251.498.001-354.084zm-18.381 346.199c-3.824 8.915-10.761 15.996-19.53 19.938-25.012 11.243-53.339 19.549-84.348 24.756.026-.184.063-.364.087-.547.722-5.475-3.132-10.499-8.607-11.221-5.479-.727-10.499 3.132-11.221 8.607-3.104 23.549-26.787 41.307-55.086 41.307s-51.981-17.758-55.086-41.307c-.722-5.476-5.75-9.334-11.221-8.607-5.476.722-9.329 5.746-8.607 11.221.024.184.061.364.087.547-31.008-5.208-59.336-13.513-84.347-24.756-8.771-3.942-15.707-11.023-19.532-19.938-20.18-47.038-31.294-107.112-31.294-169.158s11.114-122.12 31.295-169.158c3.825-8.917 10.762-15.999 19.532-19.941 44.331-19.927 100.859-30.901 159.172-30.901s114.841 10.974 159.171 30.9c8.772 3.943 15.711 11.026 19.536 19.944 20.181 47.038 31.294 107.112 31.294 169.157 0 62.046-11.114 122.12-31.295 169.157z"/><path d="m206.018 236.036c0-27.57-22.43-50-50-50s-50 22.43-50 50 22.43 50 50 50 50-22.43 50-50zm-50 30c-16.542 0-30-13.458-30-30s13.458-30 30-30 30 13.458 30 30-13.458 30-30 30z"/><path d="m325.45 119.133c-5.338 1.418-8.515 6.895-7.096 12.232 1.419 5.339 6.901 8.52 12.232 7.096 27.523-7.315 58.883 2.778 68.481 22.036 1.75 3.511 5.285 5.541 8.958 5.541 1.499 0 3.021-.338 4.453-1.052 4.943-2.464 6.952-8.469 4.489-13.411-14.01-28.107-54.211-42.359-91.517-32.442z"/><path d="m396.696 258.662c-3.378-2.33-7.045-4.307-10.907-5.947 6.355-7.084 10.229-16.437 10.229-26.679 0-22.056-17.944-40-40-40s-40 17.944-40 40c0 10.243 3.874 19.595 10.229 26.679-3.861 1.64-7.528 3.617-10.907 5.947-4.547 3.136-5.689 9.363-2.554 13.909 3.136 4.547 9.361 5.689 13.909 2.554 15.895-10.963 42.75-10.963 58.645 0 1.733 1.196 3.711 1.77 5.669 1.77 3.177 0 6.301-1.511 8.24-4.323 3.136-4.547 1.994-10.774-2.553-13.91zm-40.678-52.626c11.028 0 20 8.972 20 20s-8.972 20-20 20-20-8.972-20-20 8.972-20 20-20z"/><path d="m194.968 130.497c2.463-4.942.454-10.947-4.489-13.411s-10.947-.454-13.411 4.489c-9.599 19.258-40.959 29.348-68.481 22.036-5.335-1.427-10.814 1.758-12.232 7.096-1.419 5.338 1.758 10.814 7.096 12.232 8.022 2.133 16.176 3.146 24.176 3.146 29.205.001 56.343-13.525 67.341-35.588z"/><path d="m338.907 306.463c-45.705-13.793-120.072-13.793-165.777 0-4.223 1.273-7.111 5.163-7.111 9.573 0 30.323 14.895 58.075 40 74.843v25.157c0 27.57 22.43 50 50 50s50-22.43 50-50v-25.157c25.105-16.768 40-44.52 40-74.843-.001-4.41-2.89-8.3-7.112-9.573zm-52.889 109.573c0 16.542-13.458 30-30 30s-30-13.458-30-30v-50c0-5.514 4.486-10 10-10h10v60c0 5.522 4.478 10 10 10s10-4.478 10-10v-60h10c5.514 0 10 4.486 10 10zm19.976-50.963c-.511-16.097-13.757-29.037-29.976-29.037h-40c-16.219 0-29.464 12.94-29.976 29.037-11.014-11.176-17.956-25.714-19.629-41.529 40.217-10.076 98.992-10.076 139.209 0-1.672 15.815-8.614 30.353-19.628 41.529z"/></g></g></g></g></svg>