<svg id="Layer_1" enable-background="new 0 0 512.036 512.036" height="512" viewBox="0 0 512.036 512.036" width="512" xmlns="http://www.w3.org/2000/svg"><g><path d="m92.746 41.817c94.267-42.374 232.276-42.374 326.543-.001 11.081 4.981 19.836 13.957 24.626 25.122 42.805 99.774 42.804 246.427-.002 346.2-4.789 11.162-13.542 20.137-24.621 25.117-94.268 42.375-232.281 42.375-326.549 0-11.079-4.98-19.832-13.954-24.621-25.117-42.805-99.774-42.806-246.428 0-346.202 4.79-11.163 13.544-20.139 24.624-25.119z" fill="#a0c8ff"/><path d="m321.018 452.036c-3.71 28.139-31.396 50-65 50-33.604 0-61.29-21.861-65-50" fill="#a0c8ff"/><path d="m326.018 376.036v-30h-80v30c0 22.091 17.909 40 40 40 22.091 0 40-17.909 40-40z" fill="#ffbdbc"/><g fill="#9d9ae8"><path d="m183.45 138.461c5.338 1.416 10.814-1.759 12.233-7.096s-1.759-10.814-7.096-12.233c-37.309-9.914-77.507 4.335-91.518 32.442-2.464 4.943-.454 10.947 4.489 13.411 1.433.714 2.954 1.053 4.453 1.053 3.673 0 7.208-2.031 8.958-5.541 9.598-19.258 40.959-29.348 68.481-22.036z"/><path d="m178.947 263.107c1.953 1.953 4.512 2.929 7.071 2.929s5.119-.976 7.071-2.929c3.905-3.905 3.905-10.237 0-14.143l-22.929-22.929 22.929-22.929c3.905-3.905 3.905-10.237 0-14.143-3.905-3.905-10.237-3.905-14.143 0l-22.929 22.929-22.929-22.929c-3.905-3.905-10.237-3.905-14.143 0-3.905 3.905-3.905 10.237 0 14.143l22.929 22.929-22.929 22.929c-3.905 3.905-3.905 10.237 0 14.143 1.953 1.953 4.512 2.929 7.071 2.929s5.119-.976 7.071-2.929l22.929-22.929z"/><path d="m393.089 188.965c-3.905-3.905-10.237-3.905-14.143 0l-22.929 22.929-22.929-22.929c-3.905-3.905-10.237-3.905-14.143 0-3.905 3.905-3.905 10.237 0 14.143l22.929 22.929-22.929 22.929c-3.905 3.905-3.905 10.237 0 14.143 1.953 1.953 4.512 2.929 7.071 2.929s5.119-.976 7.071-2.929l22.929-22.929 22.929 22.929c1.953 1.953 4.512 2.929 7.071 2.929s5.119-.976 7.071-2.929c3.905-3.905 3.905-10.237 0-14.143l-22.929-22.929 22.929-22.929c3.907-3.906 3.907-10.238.002-14.143z"/><path d="m325.45 119.132c-5.337 1.418-8.515 6.896-7.096 12.233s6.896 8.512 12.233 7.096c27.521-7.313 58.882 2.777 68.482 22.036 1.75 3.51 5.285 5.541 8.958 5.541 1.499 0 3.021-.339 4.453-1.053 4.943-2.464 6.953-8.468 4.489-13.411-14.012-28.106-54.211-42.356-91.519-32.442z"/><path d="m453.104 62.996c-5.807-13.536-16.36-24.297-29.716-30.301-96.982-43.593-237.762-43.594-334.743.001-13.354 6.003-23.907 16.763-29.713 30.297-44.012 102.587-44.012 251.502.001 354.088 5.806 13.533 16.357 24.292 29.71 30.295 29.424 13.226 63.019 22.598 99.867 27.888 12.435 21.962 38.177 36.772 67.507 36.772s55.072-14.81 67.507-36.772c36.849-5.291 70.444-14.663 99.867-27.889 13.353-6.003 23.904-16.762 29.71-30.295 44.015-102.584 44.015-251.498.003-354.084zm-18.381 346.199c-3.825 8.916-10.761 15.997-19.531 19.939-25.012 11.243-53.34 19.549-84.347 24.756.026-.183.063-.363.087-.547.722-5.476-3.131-10.5-8.607-11.221-5.473-.72-10.499 3.131-11.221 8.607-3.105 23.549-26.787 41.307-55.086 41.307s-51.981-17.758-55.086-41.307c-.722-5.475-5.75-9.328-11.221-8.607-5.476.722-9.329 5.746-8.607 11.221.024.184.061.364.087.547-31.007-5.207-59.335-13.513-84.347-24.756-8.77-3.943-15.706-11.024-19.531-19.939-20.181-47.037-31.294-107.112-31.295-169.158 0-62.045 11.114-122.121 31.294-169.158 3.826-8.917 10.763-15.999 19.534-19.941 44.33-19.927 100.858-30.902 159.171-30.902s114.841 10.974 159.172 30.901c8.772 3.943 15.71 11.026 19.536 19.944 20.18 47.038 31.294 107.112 31.293 169.158s-11.114 122.119-31.295 169.156z"/><path d="m356.018 336.036h-200c-5.523 0-10 4.477-10 10s4.477 10 10 10h80v20c0 27.57 22.43 50 50 50s50-22.43 50-50v-20h20c5.523 0 10-4.477 10-10s-4.477-10-10-10zm-40 40c0 16.542-13.458 30-30 30s-30-13.458-30-30v-20h20v20c0 5.523 4.477 10 10 10s10-4.477 10-10v-20h20z"/></g></g></svg>