<svg id="Capa_1" enable-background="new 0 0 509.682 509.682" height="512" viewBox="0 0 509.682 509.682" width="512" xmlns="http://www.w3.org/2000/svg"><path d="m450.422 298.724-64.264-254.816c-.986-3.915-3.612-7.218-7.201-9.062l-17.93-9.215c-66.49-34.175-145.883-34.175-212.373 0l-17.928 9.214c-3.591 1.845-6.217 5.148-7.203 9.062l-64.263 254.818c-1.907 7.567 1.194 15.528 7.718 19.808l31.456 20.645v68.49c0 50.02 35.736 92.726 84.973 101.544l1.24.222c4.513.81 9.155-.38 12.727-3.265 3.57-2.884 5.709-7.169 5.867-11.756l4.341-125.817c6.865 3.225 14.216 5.729 21.812 7.43l2.478 43.857c.655 11.574 10.249 20.641 21.841 20.641 11.594 0 21.188-9.067 21.841-20.641l.271-4.796c.233-4.136-2.929-7.678-7.064-7.912-4.156-.235-7.678 2.929-7.912 7.064l-.271 4.797c-.205 3.638-3.221 6.487-6.864 6.487s-6.658-2.85-6.864-6.488l-2.799-49.532c0-.005-.001-.009-.001-.014l-5.198-91.979c-.108-1.908.556-3.723 1.867-5.111 1.312-1.388 3.087-2.153 4.997-2.153h15.995c1.91 0 3.685.765 4.997 2.153 1.312 1.389 1.976 3.204 1.867 5.11l-5.197 91.969c0 .008-.001.016-.001.024l-.722 12.773c-.233 4.136 2.93 7.678 7.065 7.912 4.13.22 7.678-2.93 7.911-7.065l.401-7.098c8.435-1.887 16.538-4.762 24.03-8.512l4.379 126.898c.158 4.587 2.297 8.872 5.867 11.756 2.836 2.292 6.347 3.514 9.936 3.514.928 0 1.862-.082 2.791-.249l1.24-.222c49.236-8.818 84.973-51.524 84.973-101.544v-68.49l31.455-20.644c6.525-4.278 9.626-12.239 7.719-19.807zm-166.87-20.367c.036-.638.038-1.274.017-1.909 5.349-1.762 10.408-4.082 15.113-6.899l1.359 39.377c-5.739 3.351-12.052 6.063-18.673 8.069zm92.165-214.513 7.874 31.223h-28.946zm-30.112 79.294c-.413 0-.815.042-1.209.106l-4.529-3.805 2.369-23.311c.093-.911.089-1.81.015-2.694l2.272-3.367h42.852l8.34 33.07h-50.11zm9.2 15h44.692l8.34 33.071h-55.417c2.226-4.023 3.496-8.618 3.496-13.454v-11.826c-.001-2.669-.385-5.288-1.111-7.791zm-22.668 67.286 5.315-19.215h74.169l8.34 33.07h-93.165c2.201-4.375 4-9.006 5.341-13.855zm-13.997 173.067h78.108v9.176c0 8.254-1.15 16.27-3.291 23.895h-73.677zm78.108-15h-78.626l-1.141-33.071h79.767zm-82.953-125.402c1.214-1.228 2.384-2.5 3.51-3.81h106.939l8.34 33.071h-117.779zm55.9-211.395-34.874 51.676c-.002.003-.005.007-.007.01l-1.798 2.664c-5.284-2.195-10.644-4.16-16.069-5.897l19.521-64.482c6.164 2.477 12.24 5.242 18.203 8.307zm-161.578 44.184-19.772-65.313c11.839-3.828 23.936-6.623 36.155-8.367l2.11 25.013c-1.861 2.595-2.969 5.765-2.969 9.195v7.294c0 3.646 1.271 7.208 3.582 10.03l5.627 6.873c.122.148.188.335.188.527v10.498c-8.408.903-16.726 2.321-24.921 4.25zm39.921.463v-15.21c0-3.646-1.271-7.208-3.582-10.03l-5.627-6.873c-.122-.148-.188-.335-.188-.527v-7.294c0-.459.373-.832.832-.832h31.481c.459 0 .832.373.832.832v7.293c0 .191-.066.378-.189.527l-5.627 6.874c-2.31 2.822-3.582 6.384-3.582 10.029v15.21c0 .459-.373.832-.832.832h-12.686c-.459.001-.832-.372-.832-.831zm29.35-15.21c0-.191.067-.378.189-.527l5.625-6.872c2.312-2.821 3.584-6.383 3.584-10.031v-7.294c0-3.293-1.012-6.353-2.74-8.889l2.136-25.319c12.219 1.744 24.315 4.539 36.155 8.367l-19.837 65.528c-8.257-1.986-16.64-3.448-25.112-4.389zm-6.124-60.53-1.685 19.973h-28.476l-1.685-19.973c10.601-.775 21.245-.775 31.846 0zm-115.252 23.371c5.963-3.065 12.039-5.83 18.203-8.307l19.433 64.193c-5.469 1.722-10.871 3.679-16.198 5.866l-1.582-2.344c-.002-.003-.004-.006-.006-.008l-34.875-51.676zm68.36 237.047c-.04.776-.041 1.556.003 2.338l2.184 38.649c-5.794-1.745-11.302-4.021-16.461-6.835l1.382-40.056c4.057 2.345 8.367 4.326 12.892 5.904zm-110.438 131.648v-9.176h78.108l-1.141 33.071h-73.677c-2.14-7.625-3.29-15.641-3.29-23.895zm0-24.176v-33.071h79.767l-1.141 33.071zm-15.372-177.282h73.168l5.315 19.215c1.341 4.849 3.14 9.481 5.341 13.855h-92.164zm3.783-15 8.34-33.071h43.692c-.726 2.503-1.11 5.122-1.11 7.792v11.826c0 4.836 1.27 9.43 3.496 13.454h-54.418zm20.463-81.141h42.852l1.433 2.123c-.221 1.276-.282 2.596-.146 3.939l2.369 23.311-4.421 3.714c-.106-.004-.21-.016-.317-.016h-50.11zm11.657-46.224 21.072 31.223h-28.946zm-58.758 242.148c-1.186-.778-1.749-2.226-1.402-3.601l.011-.042h43.078c4.143 0 7.5-3.358 7.5-7.5s-3.357-7.5-7.5-7.5h-39.296l8.34-33.071h105.938c1.421 1.654 2.916 3.241 4.477 4.762l-.977 28.309h-46.521c-4.143 0-7.5 3.358-7.5 7.5s3.357 7.5 7.5 7.5h46.003l-1.141 33.07h-80.285v-.292c0-2.527-1.272-4.884-3.385-6.27zm112.74 188.508c-.192.155-.413.211-.656.168l-1.24-.222c-28.407-5.088-51.539-23.385-63.582-47.885h67.414l-1.633 47.333c-.009.247-.11.451-.303.606zm20.207-142.491.876-25.391c5.694 2.574 11.68 4.642 17.921 6.183l1.557 27.553c-7.223-1.972-14.107-4.787-20.354-8.345zm53.557-96.762h-15.995c-5.989 0-11.784 2.497-15.898 6.85-.025.027-.049.055-.074.082-7.574-2.507-14.415-6.42-20.247-11.447-.356-.388-.752-.738-1.182-1.045-8.183-7.443-14.237-17.146-17.312-28.263l-7.095-25.649c-.755-2.729-2.981-4.8-5.758-5.355-6.016-1.203-10.383-6.53-10.383-12.665v-11.826c0-3.825 1.68-7.43 4.609-9.89l9.127-7.667c.75-.63 1.351-1.394 1.797-2.235l.329-.139c27.126-11.44 56.985-16.145 86.362-13.612 4.103.36 7.761-2.7 8.117-6.827.355-4.127-2.701-7.761-6.828-8.117-29.944-2.588-60.364 1.791-88.336 12.658l-1.525-15.004c17.473-7.317 35.847-11.932 54.69-13.756 2.906 3.556 7.322 5.832 12.261 5.832h12.686c4.91 0 9.306-2.247 12.212-5.767 18.593 1.87 36.733 6.463 53.995 13.691l-1.525 15.006c-6.901-2.679-14.017-4.997-21.229-6.896-4.004-1.056-8.107 1.336-9.163 5.342-1.055 4.005 1.337 8.108 5.343 9.163 8.335 2.196 16.532 4.984 24.364 8.287l.33.139c.446.841 1.047 1.605 1.797 2.235l9.127 7.667c2.93 2.46 4.609 6.065 4.609 9.89v11.826c0 6.135-4.366 11.462-10.383 12.665-2.776.555-5.003 2.626-5.758 5.355l-7.095 25.649c-5.452 19.71-20.259 34.983-39.72 41.064-.117-.13-.23-.263-.351-.391-4.114-4.353-9.909-6.85-15.898-6.85zm17.207 105.111 1.557-27.55c7.006-1.742 13.788-4.178 20.141-7.228l.867 25.121c-6.833 4.184-14.472 7.452-22.565 9.657zm44.713 134.089-1.24.222c-.241.042-.464-.013-.656-.168s-.294-.359-.303-.606l-1.633-47.333h67.414c-12.043 24.499-35.175 42.796-63.582 47.885zm110.843-188.454-34.841 22.866c-2.112 1.386-3.385 3.743-3.385 6.27v.292h-80.285l-1.141-33.07h121.044l.01.041c.348 1.375-.216 2.822-1.402 3.601z"/></svg>